<svg width="505" height="136" fill="none" xmlns="http://www.w3.org/2000/svg"><path stroke="#667EEA" stroke-width="4" d="M0 125h100M48 125V62M18 64.5c8-8 15.5-12.5 22-12.5 0 4.167 5 14.2 29 11-11-5-13.333-11-14.5-16 5.5 4 20.3 8.3 35.5-6.5-8.5 2-20.5-1.333-25-6 9-6 22.6-20.5 5-30.5 1.2 9.2-9.833 15.5-15.5 17.5 0-4.833-6.4-14.5-32-14.5 6 4.5 13.667 9.333 16 14.5-4.167-.333-15.9 1.8-29.5 13 7.5-.5 22.833 1.333 29.5 4-5.5 1.833-17.3 9.6-20.5 26z"/><path d="M181.367 104.234l6.891-36.421h10.512L187.414 119h-10.617l-8.332-34.242L160.133 119h-10.617L138.16 67.812h10.512l6.926 36.352 8.437-36.352h8.93l8.402 36.422zm19.758-4.605c0-3.773.727-7.137 2.18-10.09 1.453-2.953 3.539-5.238 6.257-6.855 2.743-1.618 5.918-2.426 9.528-2.426 5.133 0 9.316 1.57 12.551 4.71 3.257 3.141 5.074 7.407 5.449 12.798l.07 2.601c0 5.836-1.629 10.524-4.887 14.063-3.257 3.515-7.628 5.273-13.113 5.273-5.484 0-9.867-1.758-13.148-5.273-3.258-3.516-4.887-8.297-4.887-14.344v-.457zm10.16.738c0 3.61.68 6.375 2.039 8.297 1.36 1.898 3.305 2.848 5.836 2.848 2.461 0 4.383-.938 5.766-2.813 1.383-1.898 2.074-4.922 2.074-9.07 0-3.54-.691-6.281-2.074-8.227-1.383-1.945-3.328-2.918-5.836-2.918-2.485 0-4.406.973-5.766 2.918-1.359 1.922-2.039 4.91-2.039 8.965zm53.508-9.879c-1.383-.187-2.602-.281-3.656-.281-3.844 0-6.364 1.3-7.559 3.902V119h-10.16V80.96h9.598l.281 4.536c2.039-3.492 4.863-5.238 8.473-5.238 1.125 0 2.179.152 3.164.457l-.141 9.773zm18.738 13.254l-3.656 3.656V119h-10.16V65h10.16v29.918l1.969-2.531 9.738-11.426h12.199l-13.746 15.855L304.977 119h-11.672l-9.774-15.258z" fill="#000"/><path d="M323.996 111.512c1.875 0 3.399-.516 4.57-1.547 1.172-1.031 1.782-2.403 1.829-4.113h9.527c-.024 2.578-.727 4.945-2.11 7.101-1.382 2.133-3.281 3.797-5.695 4.992-2.39 1.172-5.039 1.758-7.945 1.758-5.438 0-9.727-1.723-12.867-5.168-3.141-3.469-4.711-8.25-4.711-14.344v-.668c0-5.859 1.558-10.535 4.676-14.027 3.117-3.492 7.394-5.238 12.832-5.238 4.757 0 8.566 1.36 11.425 4.078 2.883 2.695 4.348 6.293 4.395 10.793h-9.527c-.047-1.969-.657-3.563-1.829-4.781-1.171-1.242-2.718-1.864-4.64-1.864-2.367 0-4.16.868-5.379 2.602-1.195 1.71-1.793 4.5-1.793 8.367v1.055c0 3.914.598 6.726 1.793 8.437 1.195 1.711 3.012 2.567 5.449 2.567zm43.77 7.488c-.469-.914-.809-2.051-1.02-3.41-2.461 2.742-5.66 4.113-9.598 4.113-3.726 0-6.82-1.078-9.281-3.234-2.437-2.157-3.656-4.875-3.656-8.157 0-4.031 1.488-7.124 4.465-9.28 3-2.157 7.324-3.247 12.972-3.27h4.676v-2.18c0-1.758-.457-3.164-1.371-4.219-.891-1.054-2.308-1.582-4.254-1.582-1.711 0-3.058.41-4.043 1.23-.961.821-1.441 1.946-1.441 3.376h-10.16c0-2.203.679-4.243 2.039-6.118 1.359-1.875 3.281-3.34 5.765-4.394 2.485-1.078 5.274-1.617 8.368-1.617 4.687 0 8.402 1.183 11.144 3.55 2.766 2.344 4.149 5.649 4.149 9.915v16.488c.023 3.609.527 6.34 1.511 8.191V119h-10.265zm-8.403-7.066c1.5 0 2.883-.329 4.149-.985 1.265-.679 2.203-1.582 2.812-2.707v-6.539h-3.797c-5.086 0-7.793 1.758-8.121 5.274l-.035.597c0 1.266.445 2.309 1.336 3.129.891.82 2.109 1.231 3.656 1.231zm37.125-40.325v9.352h6.504v7.453h-6.504v18.984c0 1.407.27 2.414.809 3.024.539.609 1.57.914 3.094.914 1.125 0 2.121-.082 2.988-.246v7.699a20.927 20.927 0 01-6.152.914c-7.125 0-10.758-3.598-10.899-10.793V88.414h-5.555v-7.453h5.555v-9.352h10.16zM419.375 119H409.18V80.96h10.195V119zm-10.793-47.883c0-1.523.504-2.777 1.512-3.761 1.031-.985 2.426-1.477 4.183-1.477 1.735 0 3.118.492 4.149 1.477 1.031.984 1.547 2.238 1.547 3.761 0 1.547-.528 2.813-1.582 3.797-1.032.984-2.403 1.477-4.114 1.477-1.711 0-3.093-.493-4.148-1.477-1.031-.984-1.547-2.25-1.547-3.797zm17.613 28.512c0-3.773.727-7.137 2.18-10.09 1.453-2.953 3.539-5.238 6.258-6.855 2.742-1.618 5.918-2.426 9.527-2.426 5.133 0 9.317 1.57 12.551 4.71 3.258 3.141 5.074 7.407 5.449 12.798l.07 2.601c0 5.836-1.628 10.524-4.886 14.063-3.258 3.515-7.629 5.273-13.114 5.273-5.484 0-9.867-1.758-13.148-5.273-3.258-3.516-4.887-8.297-4.887-14.344v-.457zm10.16.738c0 3.61.68 6.375 2.04 8.297 1.359 1.898 3.304 2.848 5.835 2.848 2.461 0 4.383-.938 5.766-2.813 1.383-1.898 2.074-4.922 2.074-9.07 0-3.54-.691-6.281-2.074-8.227-1.383-1.945-3.328-2.918-5.836-2.918-2.484 0-4.406.973-5.765 2.918-1.36 1.922-2.04 4.91-2.04 8.965zm41.485-19.406l.316 4.395c2.719-3.399 6.364-5.098 10.934-5.098 4.031 0 7.031 1.183 9 3.55 1.969 2.368 2.976 5.907 3.023 10.618V119h-10.16V94.672c0-2.156-.469-3.715-1.406-4.676-.938-.984-2.496-1.477-4.676-1.477-2.859 0-5.004 1.22-6.433 3.657V119h-10.161V80.96h9.563z" fill="#667EEA"/></svg>
