<svg width="505" height="200" viewBox="0 0 505 200" fill="none" xmlns="http://www.w3.org/2000/svg">
<line y1="183" x2="100" y2="183" stroke="#667EEA" stroke-width="2"/>
<path d="M50 183.5V110M50 110C43.5 110 30 112.5 28 122.5C31.2 106.1 43 98.3333 48.5 96.5C41.8333 93.8333 26.6 89.3 19 92.5C32.6 81.3 44.3333 79.1667 48.5 79.5C46.1667 74.3333 39.7 64.2 32.5 65C58.1 65 64.5 74.6667 64.5 79.5C70.1667 77.5 81.2 71.2 80 62C97.6 72 84 86.5 75 92.5C79.5 97.1667 90.8 104.9 100 98.5C84.8 113.3 70 109 64.5 105C65.6667 110 70.4 119.7 80 118.5C56 121.7 50 114.167 50 110Z" stroke="#667EEA" stroke-width="2"/>
<path d="M140.98 150.863L141.965 157.613L143.406 151.531L153.531 115.812H159.227L169.105 151.531L170.512 157.719L171.602 150.828L179.547 115.812H186.332L173.922 167H167.77L157.223 129.699L156.414 125.797L155.605 129.699L144.672 167H138.52L126.145 115.812H132.895L140.98 150.863ZM189.988 147.629C189.988 143.902 190.715 140.551 192.168 137.574C193.645 134.598 195.684 132.301 198.285 130.684C200.91 129.066 203.898 128.258 207.25 128.258C212.43 128.258 216.613 130.051 219.801 133.637C223.012 137.223 224.617 141.992 224.617 147.945V148.402C224.617 152.105 223.902 155.434 222.473 158.387C221.066 161.316 219.039 163.602 216.391 165.242C213.766 166.883 210.742 167.703 207.32 167.703C202.164 167.703 197.98 165.91 194.77 162.324C191.582 158.738 189.988 153.992 189.988 148.086V147.629ZM196.527 148.402C196.527 152.621 197.5 156.008 199.445 158.562C201.414 161.117 204.039 162.395 207.32 162.395C210.625 162.395 213.25 161.105 215.195 158.527C217.141 155.926 218.113 152.293 218.113 147.629C218.113 143.457 217.117 140.082 215.125 137.504C213.156 134.902 210.531 133.602 207.25 133.602C204.039 133.602 201.449 134.879 199.48 137.434C197.512 139.988 196.527 143.645 196.527 148.402ZM251.16 134.797C250.176 134.633 249.109 134.551 247.961 134.551C243.695 134.551 240.801 136.367 239.277 140V167H232.773V128.961H239.102L239.207 133.355C241.34 129.957 244.363 128.258 248.277 128.258C249.543 128.258 250.504 128.422 251.16 128.75V134.797ZM267.789 149.387L263.711 153.641V167H257.207V113H263.711V145.66L267.191 141.477L279.039 128.961H286.949L272.148 144.852L288.672 167H281.043L267.789 149.387Z" fill="black"/>
<path d="M308.922 162.395C311.242 162.395 313.27 161.691 315.004 160.285C316.738 158.879 317.699 157.121 317.887 155.012H324.039C323.922 157.191 323.172 159.266 321.789 161.234C320.406 163.203 318.555 164.773 316.234 165.945C313.938 167.117 311.5 167.703 308.922 167.703C303.742 167.703 299.617 165.98 296.547 162.535C293.5 159.066 291.977 154.332 291.977 148.332V147.242C291.977 143.539 292.656 140.246 294.016 137.363C295.375 134.48 297.32 132.242 299.852 130.648C302.406 129.055 305.418 128.258 308.887 128.258C313.152 128.258 316.691 129.535 319.504 132.09C322.34 134.645 323.852 137.961 324.039 142.039H317.887C317.699 139.578 316.762 137.562 315.074 135.992C313.41 134.398 311.348 133.602 308.887 133.602C305.582 133.602 303.016 134.797 301.188 137.188C299.383 139.555 298.48 142.988 298.48 147.488V148.719C298.48 153.102 299.383 156.477 301.188 158.844C302.992 161.211 305.57 162.395 308.922 162.395ZM354.836 167C354.461 166.25 354.156 164.914 353.922 162.992C350.898 166.133 347.289 167.703 343.094 167.703C339.344 167.703 336.262 166.648 333.848 164.539C331.457 162.406 330.262 159.711 330.262 156.453C330.262 152.492 331.762 149.422 334.762 147.242C337.785 145.039 342.027 143.938 347.488 143.938H353.816V140.949C353.816 138.676 353.137 136.871 351.777 135.535C350.418 134.176 348.414 133.496 345.766 133.496C343.445 133.496 341.5 134.082 339.93 135.254C338.359 136.426 337.574 137.844 337.574 139.508H331.035C331.035 137.609 331.703 135.781 333.039 134.023C334.398 132.242 336.227 130.836 338.523 129.805C340.844 128.773 343.387 128.258 346.152 128.258C350.535 128.258 353.969 129.359 356.453 131.562C358.938 133.742 360.227 136.754 360.32 140.598V158.105C360.32 161.598 360.766 164.375 361.656 166.438V167H354.836ZM344.043 162.043C346.082 162.043 348.016 161.516 349.844 160.461C351.672 159.406 352.996 158.035 353.816 156.348V148.543H348.719C340.75 148.543 336.766 150.875 336.766 155.539C336.766 157.578 337.445 159.172 338.805 160.32C340.164 161.469 341.91 162.043 344.043 162.043ZM379.34 119.75V128.961H386.441V133.988H379.34V157.578C379.34 159.102 379.656 160.25 380.289 161.023C380.922 161.773 382 162.148 383.523 162.148C384.273 162.148 385.305 162.008 386.617 161.727V167C384.906 167.469 383.242 167.703 381.625 167.703C378.719 167.703 376.527 166.824 375.051 165.066C373.574 163.309 372.836 160.812 372.836 157.578V133.988H365.91V128.961H372.836V119.75H379.34ZM401.137 167H394.633V128.961H401.137V167ZM394.105 118.871C394.105 117.816 394.422 116.926 395.055 116.199C395.711 115.473 396.672 115.109 397.938 115.109C399.203 115.109 400.164 115.473 400.82 116.199C401.477 116.926 401.805 117.816 401.805 118.871C401.805 119.926 401.477 120.805 400.82 121.508C400.164 122.211 399.203 122.562 397.938 122.562C396.672 122.562 395.711 122.211 395.055 121.508C394.422 120.805 394.105 119.926 394.105 118.871ZM409.855 147.629C409.855 143.902 410.582 140.551 412.035 137.574C413.512 134.598 415.551 132.301 418.152 130.684C420.777 129.066 423.766 128.258 427.117 128.258C432.297 128.258 436.48 130.051 439.668 133.637C442.879 137.223 444.484 141.992 444.484 147.945V148.402C444.484 152.105 443.77 155.434 442.34 158.387C440.934 161.316 438.906 163.602 436.258 165.242C433.633 166.883 430.609 167.703 427.188 167.703C422.031 167.703 417.848 165.91 414.637 162.324C411.449 158.738 409.855 153.992 409.855 148.086V147.629ZM416.395 148.402C416.395 152.621 417.367 156.008 419.312 158.562C421.281 161.117 423.906 162.395 427.188 162.395C430.492 162.395 433.117 161.105 435.062 158.527C437.008 155.926 437.98 152.293 437.98 147.629C437.98 143.457 436.984 140.082 434.992 137.504C433.023 134.902 430.398 133.602 427.117 133.602C423.906 133.602 421.316 134.879 419.348 137.434C417.379 139.988 416.395 143.645 416.395 148.402ZM458.793 128.961L459.004 133.742C461.91 130.086 465.707 128.258 470.395 128.258C478.434 128.258 482.488 132.793 482.559 141.863V167H476.055V141.828C476.031 139.086 475.398 137.059 474.156 135.746C472.938 134.434 471.027 133.777 468.426 133.777C466.316 133.777 464.465 134.34 462.871 135.465C461.277 136.59 460.035 138.066 459.145 139.895V167H452.641V128.961H458.793Z" fill="#667EEA"/>
</svg>
